<?xml version="1.0" encoding="utf-8"?>
<!-- Generator: Adobe Illustrator 21.0.0, SVG Export Plug-In . SVG Version: 6.00 Build 0)  -->
<svg version="1.1" id="Layer_1" xmlns="http://www.w3.org/2000/svg" xmlns:xlink="http://www.w3.org/1999/xlink" x="0px" y="0px"
	 viewBox="0 0 245.7 782.1" style="enable-background:new 0 0 245.7 782.1;" xml:space="preserve">
<style type="text/css">
	.st0{fill:#202020;}
	.st1{fill:#2A2A2A;}
	.st2{fill:#222222;}
	.st3{fill:#1A1A1A;}
	.st4{fill:#272727;}
	.st5{fill:#B08778;}
	.st6{fill:#C9A585;}
	.st7{fill:#F0D1B4;}
	.st8{fill:#3A3A3A;}
	.st9{fill:none;stroke:#00E91F;stroke-miterlimit:10;}
	.st10{fill:#FFFFFF;stroke:#404040;stroke-miterlimit:10;}
	.st11{fill:#B2A196;}
	.st12{fill:#E2B9B3;}
	.st13{fill:none;stroke:#D4B8A4;stroke-miterlimit:10;}
	.st14{fill:#FFFFFF;stroke:#FFFFFF;stroke-miterlimit:10;}
	.st15{fill:#282828;stroke:#3A3A3A;stroke-miterlimit:10;}
	.st16{fill:#282828;stroke:#282828;stroke-miterlimit:10;}
	.st17{fill:#2A2A2A;stroke:#2A2A2A;stroke-miterlimit:10;}
	.st18{fill:#202020;stroke:#202020;stroke-miterlimit:10;}
	.st19{fill:#2C2C2C;stroke:#2C2C2C;stroke-miterlimit:10;}
	.st20{fill:#FFFFFF;}
	.st21{fill:#FAE4D2;}
	.st22{fill:#C9A585;stroke:#D4B8A4;stroke-miterlimit:10;}
	.st23{fill:#C0C0C0;}
	.st24{fill:#F0D1B4;stroke:#F0D1B4;stroke-miterlimit:10;}
	.st25{fill:#303030;}
	.st26{fill:#D2B69B;}
	.st27{fill:#313131;}
	.st28{fill:#1E1E1E;}
	.st29{fill:#252525;stroke:#272727;stroke-miterlimit:10;}
	.st30{fill:#5A5A5A;}
	.st31{fill:#353535;}
</style>
<path class="st0" d="M46.3,60.7l1.3-9L50,39.3l5.3-10.7l-0.7,6l4-11L59,29l5-6.3l4.7-5.7l10-2.3l5.3,3.7l-0.7-3.7l3.3,4.3l1-4.3
	l4,6.7l13.3,13l5.3,7V37l4,7.5l4.7,11.2v20.7V87l-2-2.7l-3.7,13l-2-20.7l-9-13.7l-0.7-10.7c0,0-2.7-0.3-6.7-1c-4-0.7-5.3,0.3-6.3-2
	C87.7,47,80.3,48,76,48c-4.3,0-9-0.7-11.3-0.7c-2.3,0-15.7,7.7-16,10.7s-3.3,15.7-3.3,15.7l-1,4L46.3,60.7z"/>
<rect x="89.2" y="509.6" transform="matrix(0.9885 -0.1514 0.1514 0.9885 -76.9584 24.5254)" class="st1" width="66.7" height="15.9"/>
<path class="st2" d="M35.3,661c-0.9,2.3-3.5,9.8,0.2,14.2c1.1,1.3,2.2,2,3.4,2.3c6.8,1.8,26.4,5.7,26.4,5.7h17.1l27.8-5.7l10.5-5.5
	l-11-21.3L95.3,642C75.3,648.3,55.3,654.7,35.3,661z"/>
<path class="st0" d="M70.9,508.8c7.8,25.3,15.6,50.6,23.5,75.9c0.3,19.1,0.6,38.2,1,57.3c4.4,5.5,8.7,11.1,13.1,16.6
	c3.5-17.8,7.1-35.5,10.6-53.3c-3.5-8.9-6.9-18.4-10-28.7c-8-26.7-12-51.4-13.8-72.7C87.1,505.6,79,507.2,70.9,508.8z"/>
<path class="st3" d="M95.3,642c0,0-26.6,9.3-36.1,10.7c-9.5,1.3-23,1.8-23,4.8s-4.5,9.5,0,11.5s4.7,8.5,30.3,8.5l33.7-5.1
	c4.4-0.6,8.8-1.3,13.2-1.9c-1.2-6.6-2.5-13.2-3.7-19.8C104.9,647.8,100.1,644.9,95.3,642z"/>
<path class="st4" d="M107,652.7c0,0-20.2,7.8-32,11.8s-11.8,4-11.8,4H75L107,652.7z"/>
<path class="st2" d="M173.4,720.3l0.1,18.1c0,0-7.8,12.7-12.8,13.2s-9.5,0-9.5,0l-20,19.3c0,0-45.7,12.7-49.9,11.2
	c-4.1-1.5-16.5-6-16.1-11.2C65.6,765.6,173.4,720.3,173.4,720.3z"/>
<rect x="65.3" y="122" transform="matrix(0.931 -0.365 0.365 0.931 -41.9875 42.2095)" class="st5" width="50.6" height="20.2"/>
<path class="st6" d="M81.7,139h-5.5H64.9l1.4,13.3l8.3,4.5l41.8-31.5c-0.9-4.8-1.8-9.5-2.8-14.3c-0.3,1-0.7,2-1,3l-6.7,7.5L89.8,135
	L81.7,139z"/>
<path class="st7" d="M100.7,122.3c2-1.4,3.8-2.3,5-2.8c2.7-2.4,5.3-4.8,8-7.3V111c0,0,4.4,0.8,5.3,0s3.2-2.3,3.2-2.3l5-8.9v-7
	c0,0-0.8-6.9-2.5-7.1s-2.3-0.9-4,0.2s-4.3,0.8-4.3,0.8l-3.2,13.1l-1.8-23.1l-9-13.7l-0.7-10.7l-11.8-1.6c0,0-0.9-4.6-20.3-3.1
	l-4.9-0.3c-2.2,0.6-5.2,1.6-8.5,3.7c-3.2,2-5.5,4.2-6.9,5.9c-1.6,6.9-3.3,13.9-4.9,20.8v26.9c0,0,2.6,12,6.3,18.2
	s11.7,13.7,11.7,13.7l2.6,2.5c0.9,0.4,2,0.7,3.3,1c1.7,0.3,3.2,0.4,4.3,0.3c4-0.1,7.1-0.7,9.2-1.3l11.6-5
	C93.3,134,95.3,126.1,100.7,122.3z"/>
<path class="st8" d="M129,143c0,0,7,1.7,10.7,2.7s16,4.7,16,4.7L179,161c0,0,8.7,3.2,9.7,6.3s4.7,13.1,5.3,16.8
	c0.7,3.7,3.7,9.7,3.7,9.7l2,15L205,219v11l8.3,6.5v9.5l2.7,5l10,17l7,11.3V298l-2.3,8l-13,19.7l-46.7,52h-5.3c0,0-26.7-28-29.3-30.3
	c-2.7-2.3-4.7-2.7-4.7-2.7l11-8.3l0.3-7.3l10.3-2.3l6.3-10l18.7-16.3l-2.3-9l-4.3-3.3l-6-8l-18-50.7L172,291l-2.7,1.7l-1,12.3
	l6,127.3l-11,30.7h-11l-15,8.3c0,0-26.7,6-34.3,2.7c-7.7-3.3-20.3-13.3-20.3-13.3s-21-52.7-21-55c0-2.3-13-53-13-53V328v43.7
	l-4.7,55l-9.7,7.7l-3.7-1v-15l3.7-30.3l4-20.7l1-19.7c0,0,3.7-34,2.7-38.7s-4.3-16.3-4.3-16.3L37.3,277l-1.3-5.3
	c-1-1.1-2-2.1-3.1-3.2c-0.2-7.5-0.4-15-0.6-22.5c0,0-0.3-63,2-67.5c2.3-4.5,1-6.8,4-8.5s12.3-6.6,12.3-6.6l4.4,10.6L48,191l-6,37
	l8.7,88.7l43.1-92.1l19.9-42.6l-1.7-9l12-3.3L129,143z"/>
<path class="st7" d="M82.3,402.5l3.2-13.5c2.9,1.1,5.9,2.2,8.8,3.3c-0.8,1.3-1.6,2.6-2.4,3.9l-4.2,8.8L82.3,402.5z"/>
<polygon class="st6" points="88.7,402.9 91.5,397 92.9,394.3 92.7,397.7 91.8,404.4 "/>
<path class="st7" d="M113.3,363l-18,2l-6.3,9.7c0,0,0.6,1.9,2.1,2.2c0.6,0.1,1-0.1,1.3-0.2c2.6-1.1,3.9-1.6,8.5-6l0,0
	c-5.1,6.1-10.2,12.2-15.4,18.3c0,0,1.8,3,3.5,4c1.7,1,4,0,4,0l-0.3,4.7l5.3,3.7l3.1-1.4l2.3,3.4l5,1.7h3l6.6,2.3l2.4-2.3
	c0,0,10.3-10.4,11.5-13.4c1.2-3,3.5-9,3.5-9l-17.4-22L113.3,363z"/>
<path class="st7" d="M81.7,137.3"/>
<path class="st9" d="M43,73.3"/>
<path d="M45.9,84.5c0,0,0.8-4.8,6-4.8s13,0,13,0s-3.2-2.8-7.7-3s-8,0-8,0l2.1,0.8c0,0-3.7-0.3-4.8,3C45.4,83.8,45.9,84.5,45.9,84.5z
	"/>
<path d="M71.8,78.7c0,0,8.5-3.8,9.8-4c1.3-0.2,9.5,0,9.5,0c1.4,0.5,2.7,1.1,4.1,1.6c-0.9-0.2-1.8-0.4-2.8-0.6l4.5,1l4.7,4.9
	l-5.3-2.2L89.7,78c-2.4,0.5-5.4,1-8.8,1.1C77.4,79.3,74.3,79,71.8,78.7z"/>
<path class="st10" d="M79,86.3c0,0,3.8-5.5,11-2.7c7.2,2.8,5.3,4,5.3,4s-0.8,1.8-7.3,1c-6.5-0.8-9-0.3-9-1.3S79,86.3,79,86.3z"/>
<path class="st10" d="M48.5,89.7c0,0,3.8-8.2,9-6l2.7,0.8l2.2,2c0,0-0.5,1.5-3.8,2.4c-3.3,0.9-7.3,0.8-8.7,0.8H48.5z"/>
<circle cx="57.1" cy="86.2" r="2.7"/>
<ellipse cx="87" cy="85.7" rx="2.8" ry="2.3"/>
<path class="st11" d="M65.9,83.3c0,0,1,5.7,0,7.9s-3.6,8.5-3.6,8.5L64.9,88L65.9,83.3z"/>
<ellipse class="st11" cx="71.8" cy="104.7" rx="2.3" ry="0.8"/>
<ellipse transform="matrix(0.9798 -0.1997 0.1997 0.9798 -19.5843 14.9601)" class="st11" cx="64.3" cy="104.5" rx="2" ry="0.8"/>
<path class="st12" d="M59.7,118c0,0,1.4-4,6.7-4c5.3,0,12.6,2,12.6,2l5.2,1.3c0,0-3.4,2.5-7.3,3.8c-3.9,1.3-9.3,2.5-12.5,1.3
	c-3.2-1.3-4.7-2.8-4.7-2.8V118z"/>
<path class="st5" d="M80.4,118.4c0,0-1,0.6-10.9,0.9s-9.9-1.3-9.9-1.3L80.4,118.4z"/>
<path class="st13" d="M117.9,93.5c0,0,2.3-5.4,3.5-3.8c1.3,1.6,1.3,6.6,1.3,6.6v3.5l-4.8,7l-2.8-2.9l2.5-7.6l1.3,3.5v-3.5l-3.8,1.1
	v9.4l6.5-2.9l2.5-7.6l-1.3-6.9l-4.8,0.3L117.9,93.5z"/>
<path class="st14" d="M64.3,141l-2,5l1,8.3l-3.6,11.5l-4.3,18c0,0-4.9,13.5-4.7,22s3,22.5,3,22.5l1.8,17l0.3,7.3
	c0,0,20.2-44.8,22.2-46.3s15-26.3,15-26.3l10.8-19.8l11.3-24.8l3-8.8h-1.5l-41.8,30l-8.3-4.5L64.3,141z"/>
<path class="st15" d="M116.4,125.3c4.2,5.9,8.4,11.8,12.6,17.8l-5,26.7l-12,3.3l1.7,9l-63,134.7L42,228l6-37l7.1-17
	c2.7-6.6,5.5-13.1,8.2-19.7c-4.2,14.8-8.5,29.6-12.7,44.4l3.2,31.6l1.8,22.2l28.5-56.3l19.5-35.9
	C107.9,148.6,112.2,136.9,116.4,125.3z"/>
<path class="st16" d="M96.3,224c0,0,9,2.7,15.3,2.7c6.3,0,14.7,0,17.3-1.3c2.7-1.3,9-4.8,9-4.8l1.3,7.5l-4,2.3c0,0-14.7,7-20.7,6.2
	S93.3,233,93.3,233l0.5-8.4L96.3,224z"/>
<path class="st17" d="M164.4,460.1v7.9l-6.4,18l1.3,13l-4.7,7.7l2,14L89,519l-10.3-56c0,0-13.7-20.7-13.7-22s0-5,0-5l-18.7-36.1
	l2.4-44.9l13,50.7l21,55L103,474c0,0,22.8-0.5,25.3-0.9l9-1.7l15-8.3h11L164.4,460.1z"/>
<polygon class="st18" points="48.7,444.7 44,426.7 46.3,399.9 65,436 65,441 78.7,463 89,519 75,520.7 "/>
<path class="st19" d="M32.3,334c0,0,4.1-3.4,6.3-3s2.3,0.4,2.3,0.4L42,309l-8.3,20L32.3,334z"/>
<path class="st14" d="M30.7,347l1.7-13l6.3-3l2.3,0.4l-1.1,12c0,0-6.4,1.6-7.4,3.6C31.3,349,30.7,347,30.7,347z"/>
<path class="st14" d="M131.7,344.7l34,33c0,0-19,9.3-20.7,12.3s-3.3,3-3.3,3l-3-3.3c0,0-17.2-20.3-20.8-24.7
	c-3.6-4.3-4.6-5.7-4.6-5.7L131.7,344.7z"/>
<polyline class="st7" points="30.7,347 30.3,347.7 22,363.7 24.2,380.7 33.3,386.3 35.8,372 32.3,370.7 32.3,368.8 34.3,367.8 
	35.8,368.8 37.2,365.7 38.8,357.2 38.8,343.7 33,346.2 32.3,347.9 "/>
<ellipse class="st20" cx="88.8" cy="84.8" rx="0.4" ry="0.8"/>
<ellipse class="st20" cx="58.8" cy="85.8" rx="0.4" ry="0.8"/>
<path class="st21" d="M28.8,121.5"/>
<path class="st21" d="M-135,39.7"/>
<path class="st22" d="M0,78"/>
<polygon class="st23" points="78.4,168 88,174.7 96.6,162.7 86.8,170.8 "/>
<path class="st24" d="M56.9,364.3"/>
<path class="st24" d="M98.7,379"/>
<polygon class="st7" points="101,406.6 101,397 109.2,401.8 109.2,409.6 "/>
<polygon class="st7" points="111.5,400.8 110.4,408.7 118,411 119.5,404.7 "/>
<path class="st7" d="M93,405.1c-0.1-3-0.2-5.9-0.3-8.9c2.4,0.9,4.8,1.8,7.2,2.7c-0.5,2.8-0.9,5.7-1.4,8.5L93,405.1z"/>
<polygon class="st25" points="55.3,48.9 64.2,31.9 59,48.9 "/>
<polygon class="st25" points="48,53.4 55.5,41.2 51.2,53.4 "/>
<polygon class="st25" points="64.2,46.5 74.8,30.5 68,46.9 "/>
<path class="st26" d="M93.3,134c-1.8,0.8-3.6,1.5-5.5,2.3c5.9-5.5,15-15.6,20.5-30.7c2.4-6.5,3.5-12.5,4.1-17.5l0.9,9.3l0.3,14.9
	l-4,6.1L93.3,134z"/>
<path class="st26" d="M130.5,108.7"/>
<path class="st7" d="M139.7,121"/>
<path class="st5" d="M176.7,92.3"/>
<path class="st15" d="M137.2,124.3"/>
<polygon class="st15" points="169.9,285.6 150.2,228.5 151.6,239.3 169.3,292.7 171.7,288 "/>
<path class="st27" d="M188.7,167.3c0,0-14,3.3-17,11.3s-7.3,18.6-7.3,18.6L188.7,167.3z"/>
<path class="st27" d="M206.4,230.8c0,0-10.2,2.4-12.4,8.2c-2.2,5.8-5.3,13.5-5.3,13.5L206.4,230.8z"/>
<path class="st27" d="M167.3,296.7c0,0-36.5,45.7-49.4,47C105,345,105,345,105,345l60.7-48.3H167.3z"/>
<polygon class="st27" points="145,268.7 101,316.7 107,316.7 145,273.3 "/>
<polygon class="st27" points="73.4,399.6 49.9,358.5 49.9,344.6 "/>
<path class="st1" d="M155.2,510.1c-21.7,3-43.4,5.9-65.2,8.9c0,0,14,88.3,18,87s0,46.7,0,46.7s1.5,27.3,3.4,35.3s3.8,16,3.8,16
	l3.8,12c3.3,1.8,20.5,10.6,37.8,3.3c2.6-1.1,15.7-6.6,17.3-16.7l-2.7-16.7l2.9-30.7c0,0,0.3-39.3,0-44c-0.7-12.1-1.9-21.9-8.9-54.7
	C161.6,539,158.1,523.3,155.2,510.1z"/>
<path class="st0" d="M109.2,597.4c0,0,17.2,19.5,21.2,20s11,8.5,11,8.5s-14.7-2-16.3-3c-1.7-1-11.7-11.3-11.7-11.3L109.2,597.4z"/>
<path class="st0" d="M166.5,636.3c0,0-2,36.4-10.5,39.4s-8.5,3-8.5,3l9.5,2.5c0,0,9.5-8,9.5-15.5S166.5,636.3,166.5,636.3z"/>
<path class="st3" d="M117.2,713.6c0,0-32,27.9-39.5,35.9s-16.5,18.2-10.5,21.3c0,0,7.5,3.2,11,3.2s45-5.5,48-9
	c3-3.5,31.5-28.5,31.5-28.5s15.5-11,15.7-16.2s-0.4-17.6-0.4-17.6l-16.3,16.7L117.2,713.6z"/>
<path class="st4" d="M81.3,768c0,0,16.9,2,25.4-1.5s19.4-7,19.4-7L81.3,768z"/>
<path class="st28" d="M353,602"/>
<path class="st3" d="M263.7,682.7"/>
<path class="st3" d="M267.7,574"/>
<polygon class="st2" points="157,725.3 103.7,754 126.1,751.2 "/>
<path class="st4" d="M46.3,657c0,0-3.1,2,6.9,4.5s10,7,10,7l-12.5-4c0,0-12.8-5.1-10-7.5S46.3,657,46.3,657z"/>
<path class="st28" d="M-31.7,564.7"/>
<path class="st0" d="M295.2,535"/>
<polygon class="st27" points="38.3,170 32.6,207 34.3,178.5 "/>
<polygon class="st0" points="69.5,160 74.6,156.8 79.2,160 79.2,167.3 74.3,169.2 69.5,166.7 "/>
<polygon class="st6" points="101,399.9 101,407.3 98.4,406.8 99.7,400.5 "/>
<polyline class="st0" points="55.7,252.5 73.4,217.5 76,168.5 71.7,164.6 70.1,168.5 60.9,208.5 55.2,243.4 "/>
<polygon class="st6" points="111.3,405.1 110.4,409.6 108.7,409.6 109.2,405.1 "/>
<polygon class="st29" points="76.5,397.2 95.6,405.6 116.2,410.6 124.8,409.7 125.3,414.6 97.2,410.3 75.3,399.9 73,395.8 
	74.6,392.9 "/>
<polygon class="st30" points="71.8,165.5 71.6,161.7 73.6,158.3 70.3,160.2 "/>
<polygon class="st30" points="71.3,170.1 66.9,197 65.1,202.6 69.3,175.4 "/>
<path class="st15" d="M20.4,157.9"/>
<path class="st8" d="M46.7,166.5c5.4-4.2,10.8-8.4,16.3-12.6c-3.2,8.1-6.4,16.1-9.5,24.2C51.1,174.3,48.9,170.4,46.7,166.5z"/>
<polygon class="st31" points="103.3,52 116.7,61.7 119,62.7 119,87 113.3,97.3 111.3,76.7 102.3,63 101.7,52.3 "/>
<circle class="st15" cx="50.7" cy="320.8" r="3.4"/>
<circle class="st15" cx="49.9" cy="339.4" r="3.4"/>
<path d="M33.2,61"/>
<path class="st8" d="M29.3,166.5"/>
</svg>
