<?xml version="1.0" encoding="utf-8"?>
<!-- Generator: Adobe Illustrator 21.0.0, SVG Export Plug-In . SVG Version: 6.00 Build 0)  -->
<svg version="1.1" id="Layer_1" xmlns="http://www.w3.org/2000/svg" xmlns:xlink="http://www.w3.org/1999/xlink" x="0px" y="0px"
	 viewBox="0 0 362 534.7" style="enable-background:new 0 0 362 534.7;" xml:space="preserve">
<style type="text/css">
	.st0{fill:#F0D1B4;stroke:#F0D1B4;stroke-miterlimit:10;}
	.st1{fill:#243C4A;stroke:#243C4A;stroke-miterlimit:10;}
	.st2{fill:#2E3137;stroke:#2E3137;stroke-miterlimit:10;}
	.st3{fill:#FFFFFF;stroke:#2E3137;stroke-miterlimit:10;}
	.st4{fill:#2E3137;stroke:#2E3137;stroke-linecap:round;stroke-linejoin:round;stroke-miterlimit:10;}
	.st5{fill:none;stroke:#CFBCA7;stroke-miterlimit:10;}
	.st6{fill:#E0A085;stroke:#F1AB91;stroke-miterlimit:10;}
	.st7{fill:#997564;stroke:#997564;stroke-miterlimit:10;}
	.st8{fill:#C9A585;}
	.st9{fill:#CFBCA7;stroke:#CFBCA7;stroke-miterlimit:10;}
	.st10{fill:#2C2C2C;stroke:#2C2C2C;stroke-miterlimit:10;}
	.st11{fill:#21323D;stroke:#21323D;stroke-miterlimit:10;}
</style>
<path class="st0" d="M-39.8,112.5"/>
<path class="st1" d="M-88,368"/>
<g>
	<path class="st0" d="M144.3,204.3l11.7-7.6l11.3-4.5h5.3L174,174v-4.5l11.5-11.7l2.5-10.6l1.5-10.5l-0.7-4l-4.8-8.3
		c0,0-21.5,0.3-19.5,3S153,160,153,160l-2.5-9.5l3-38l-1-6L144,104l-4-10l-2-20.5l-6-7.5l-11-5.5l6-2.5l-28-4c0,0-21-1.5-49,9.5
		l-8,25v5.7V96l11.3,1.6L52,98l6.5,7.5H47c-2.9,1-5.8,2-8.7,3c0.3,3.1,0.7,6.2,1,9.3c-0.1,5.7-0.2,11.4-0.3,17.2
		c-1.5,3.7-3.4,9.8-3.5,17.5c-0.1,7.8,1.6,13.9,3,17.7c1.8,5.9,3.7,11.9,5.5,17.8l8.8,17.8l9.1,12l4.4,2l5.6,1l3.6,1.9l24-7.3
		l23.2-13.7l25.3-22.9L144.3,204.3z"/>
	<path class="st2" d="M25,58l6.5-14l-9,4.5l16-15.5h-8l8-6L36,21h8l-8.5-3.5l21-5l-7.5-5h13.5V3l20,6l-5-6l16,5.5V3l11,4l12-1L111,3
		l14.5,4V3l8.5,5V0l7,8.5V0l12,19.5v-13l7.5,11.5l3.5-4.5l4.5,9l4-4.5v9l7,5l7.5,11l9.5,17.5c0,0-0.5,44-3.5,51.5l-3.5,12v10
		l-5.5-9.5c0,0-17.5-1-19.5,3s-5,15-5,15L153,160l-2.5-9.5l3-38l-1-6L144,104l-4-10l-2-20.5l-6-7.5l-11-5.5l6-2.5l-28-4
		c0,0-5-5.5-27,2s-22,7.5-22,7.5L48,69l-6,19.5L39.5,95L36,72.5l-4,12v-18L22.5,73L25,58z"/>
	<polygon class="st2" points="185.5,160 177.5,169 174,174 174,188 179.8,178.5 182.5,174 	"/>
	<path class="st2" d="M41.5,98c0,0,8.5-1,10.5,0s6.5,7.5,6.5,7.5H47l-8,3L41.5,98z"/>
	<polygon class="st2" points="75.5,103 88.5,97.6 99.5,97.6 93.5,100.3 109.5,97.6 115,100.3 125,108.5 119,108.5 107.5,103 
		94.5,105.5 75.5,106 	"/>
	<path class="st3" d="M88.5,120c0,0,8.5-8.5,14.5-7s17,11.5,17,11.5s-8,4.5-19.8,0L88.5,120z"/>
	<path class="st3" d="M39,123c3.1,1.1,13.2,4.3,19.7,0.5c1.9-1.1,2.2-2.2,2.4-2.7c0.8-2.7-1.4-6.4-8-8c-2.2,1.1-4.5,2.3-6.7,3.4
		c-1.4,1-2.9,2.2-4.4,3.6C40.9,120.9,39.9,122,39,123z"/>
	<path class="st2" d="M53.1,112.8c-0.3,0.2-2.6,1.8-3,4.8c-0.3,2.8,1.2,4.8,1.5,5.1c1,0.3,1.9,0.6,2.9,1c1.1-0.3,2.7-1,4.3-2.3
		c1.2-0.9,2.2-1.8,2.3-2.7C61.3,116.6,58.3,113.9,53.1,112.8z"/>
	<path class="st4" d="M100.3,115.8c0,0-2,6.3,1.3,7.3s7.3,2.7,8,1.4s2.3-2.6,2.3-2.6v-2.1l-1.1-2.6l-7.6-4L100.3,115.8z"/>
	<path class="st5" d="M63.8,105.8c0,0,3.5,5.3,2.3,10s-7.5,28-7.5,28l-1,4.6c0,0,0.8,6.5,2,7.3s2.4,2.2,2.4,2.2"/>
	<path class="st5" d="M120,195.3l9.8-10.4c3.4-6.3,6.9-12.6,10.3-18.9"/>
	<path class="st6" d="M52.3,177.3c0,0,1.8-7.5,6.3-8.8s14.8,0,14.8,0l10.5,4.1l7.3,4.7l-5.5,5.3L66.3,188L52.3,177.3z"/>
	<polygon class="st7" points="54.3,174 57.5,175.8 64.3,175.8 71.6,174.9 77,174.9 85.5,175.8 87.3,174.9 91,177.3 88.5,178.8 
		80.5,178.8 66.3,178.8 57.5,178.8 52.8,175.4 	"/>
	<path class="st8" d="M91.9,256.7l-16.4-34l24-7.3l23.2-13.7l25.3-22.9l-3.7,25.6c0,0-52,49-51,50.7
		C94.3,256.7,91.9,256.7,91.9,256.7z"/>
	<path class="st9" d="M164.3,161.4l-1.7-3.5l1.7-5.8l3-3.3V142l3.7-2.3l3,3.7v4.3l3,2.9v4.8c0,0-4.3-1.7-4.7-2.7
		c-0.3-1-1.3-1.3-2.5-0.3s-1.8,5.5-1.8,5.5l4.7,3.5l4.3-1.4l4.7-11v-6l-1.9-6.7l-3.8-4.5h-7c0,0,3.7-3.8,8-3.8s6-3.3,6.3,0
		s1.7,5.3,2.2,8.3s0.8,6,0,9.2s-3.8,12.3-3.8,12.3l-7.3,7.2h-3l-4-3.6H164.3z"/>
	<path class="st1" d="M191.4,223.5c15,12.4,30,24.7,44.9,37.1l13.1,20.4l20.2,30l4,19.9l2.7,19.9l7.3,13l21,28l11.3,22.7l8,17.7
		l29,63.7c0,0,1.3,8.7-6,16s-30,26-30,26l-15.3,7.3L246.3,582l-44.7,26L173,625.3l-13.3-14L157,594l-5-14.7l-8.3-6l-4.4-20.2
		l5.1-1.2l16-9.3l10-1.3l9.4-2l7.3-8l10.3-2.8c2.5-1.1,4.9-2.3,7.4-3.4c0.5-0.8,1.2-1.7,2.4-2.7c1.4-1.2,2.7-1.8,3.6-2.1
		c4-5.2,7.9-10.4,11.9-15.6c3.3-1.9,6.7-3.9,10-5.8c3.9-2.3,7.8-4.6,11.8-6.8v-7.3l-4-10.7l-2-10c0,0-34-34-35.3-38.7
		s-10.5-14-10.5-14l17.8,48.7l-4,9.6L197,492l18-25.3l4.7,23.3L205,516.7l-25.3,20l-17.4,2.7l-23.1,8.7l-4.3,7.3l-6.7,8L115,564
		l-25.3-0.7l-31.3,7.3l-8.7,4.7l-7.3,8l6,5.3l14,2l6.2-2l-2.2,10L63,616l-28-2.7c1.7-16.8,3.3-33.6,5-50.3c1.7-20.3,3.3-40.7,5-61
		c0.7-12,1.3-24,2-36c0.3-15,0.7-30,1-45c4.6-32.8,9.3-65.6,13.9-98.3l10-44l3.6-1.2l-9.2,92l9.2-33.5l29.2-58
		c7.6-8.3,15.1-16.7,22.7-25c-1.4,7.3-2.9,14.7-4.3,22l-45,77.5L66.3,384l41.7-58l22.1-20.5l-1.7-15.3l-1.8-3.8l33.7-14.6l6-15.2
		C174.6,245.6,183,234.6,191.4,223.5z"/>
	<path class="st0" d="M40,99l-1,6.8c0,0.9,0,1.8,0,2.8c0,0.4,0,0.8,0,1.3c0.5-5.7,1-11.5,1.5-17.2L42,96L40,99z"/>
	<path class="st10" d="M85.8,244.1l6,12.5l52.5-52.3c0,0,22.2-18.2,32.2-9l3.3,4.2l-34.3,18.2l-15.4,29.8L104.5,282
		c0,0-9,16.5-10,18.5s-19,35.5-19,35.5l-9.2,33.5v-20l5.4-40.5l3.9-31.5L85.8,244.1z"/>
	<path class="st10" d="M123,275l4.8-24.5l17.7-32.8l34.3-18.2h5.8l4,6.5l3,11.7l-3,7.8c0,0-30,35.5-28,43s-35,18-35,18l3.6,19
		L108,326l-32.5,43.5l-7,11.5l9.5-28.5l31.5-55.5L123,275z"/>
	<path class="st10" d="M110,347c0,0,6.7,7.3,23.3,6.3s16.7-1,16.7-1l2,17.2c0,0-36.7-0.8-42-4.5s-5.3-3.7-5.3-3.7L110,347z"/>
	<path class="st10" d="M223,319c0,0,17.3-9,26,0c8.7,9,27.3,32,27.3,32l-2.3-10c0,0-25-27.3-26-27.3s-10.3-5.7-19,0
		C220.3,319.3,223,319,223,319z"/>
	<path class="st11" d="M66.3,384c0,0-8.1,91-10.7,116c-2.6,25-3.3,61-3.3,61l-2.2,8v38l2.7-150L66.3,384z"/>
	<path class="st11" d="M192.5,411.3l10.5,14l21.5,24.5l13.9,14.2l2,10l2.3,6c1.7,4.1,3.3,8.3,5,12.4c-4.5,1.6-9.6,3.6-15,6.4
		c-3.7,1.9-7,3.9-10,5.8c-6.5,7.4-13,14.8-19.4,22.2l-10.7,2.9c-1.8,0.5-3.7,1-5.5,1.5c4.7-3.8,9.3-7.7,14-11.5l7.2-8.9l11.5-20.9
		l-4.7-23.3L197,492l13.3-32L192.5,411.3z"/>
	<path class="st10" d="M14,284.7"/>
</g>
<path class="st11" d="M-101.7,460"/>
<path class="st11" d="M-193,413"/>
</svg>
