<?xml version="1.0"?>
<svg xmlns="http://www.w3.org/2000/svg" xmlns:xlink="http://www.w3.org/1999/xlink" version="1.1" id="Capa_1" x="0px" y="0px" viewBox="0 0 512.202 512.202" style="enable-background:new 0 0 512.202 512.202;" xml:space="preserve" width="512px" height="512px" class=""><g><g>
	<g>
		<path d="M154.578,193.071H87.862c-4.655,0-7.758,3.103-7.758,7.758v67.491c0,4.655,3.103,7.758,7.758,7.758h66.715    c4.655,0,7.758-3.103,7.758-7.758v-67.491C162.335,196.174,159.232,193.071,154.578,193.071z M146.82,261.337h-51.2v-51.976h51.2    V261.337z" data-original="#000000" class="active-path" data-old_color="#454545" fill="#454545"/>
	</g>
</g><g>
	<g>
		<path d="M248.444,193.071h-66.715c-4.655,0-7.758,3.103-7.758,7.758v67.491c0,4.655,3.103,7.758,7.758,7.758h66.715    c4.655,0,7.758-3.103,7.758-7.758v-67.491C256.202,196.174,253.099,193.071,248.444,193.071z M240.687,261.337h-51.2v-51.976h51.2    V261.337z" data-original="#000000" class="active-path" data-old_color="#454545" fill="#454545"/>
	</g>
</g><g>
	<g>
		<path d="M342.311,193.071h-66.715c-4.654,0-7.758,3.103-7.758,7.758v67.491c0,4.655,3.103,7.758,7.758,7.758h66.715    c4.655,0,7.758-3.103,7.758-7.758v-67.491C350.068,196.174,346.965,193.071,342.311,193.071z M334.553,261.337h-51.2v-51.976h51.2    V261.337z" data-original="#000000" class="active-path" data-old_color="#454545" fill="#454545"/>
	</g>
</g><g>
	<g>
		<path d="M436.178,193.071h-66.715c-4.655,0-7.758,3.103-7.758,7.758v67.491c0,4.655,3.103,7.758,7.758,7.758h66.715    c4.655,0,7.758-3.103,7.758-7.758v-67.491C443.935,196.174,440.832,193.071,436.178,193.071z M428.42,261.337h-51.2v-51.976h51.2    V261.337z" data-original="#000000" class="active-path" data-old_color="#454545" fill="#454545"/>
	</g>
</g><g>
	<g>
		<path d="M154.578,285.386H87.862c-4.655,0-7.758,3.103-7.758,7.758v67.491c0,4.655,3.103,7.758,7.758,7.758h66.715    c4.655,0,7.758-3.103,7.758-7.758v-67.491C162.335,288.489,159.232,285.386,154.578,285.386z M146.82,352.877h-51.2v-51.976h51.2    V352.877z" data-original="#000000" class="active-path" data-old_color="#454545" fill="#454545"/>
	</g>
</g><g>
	<g>
		<path d="M248.444,285.386h-66.715c-4.655,0-7.758,3.103-7.758,7.758v67.491c0,4.655,3.103,7.758,7.758,7.758h66.715    c4.655,0,7.758-3.103,7.758-7.758v-67.491C256.202,288.489,253.099,285.386,248.444,285.386z M240.687,352.877h-51.2v-51.976h51.2    V352.877z" data-original="#000000" class="active-path" data-old_color="#454545" fill="#454545"/>
	</g>
</g><g>
	<g>
		<path d="M154.578,376.925H87.862c-4.655,0-7.758,3.103-7.758,7.758v67.491c0,4.655,3.103,7.758,7.758,7.758h66.715    c4.655,0,7.758-3.103,7.758-7.758v-67.491C162.335,380.804,158.456,376.925,154.578,376.925z M146.82,445.192h-51.2v-51.976h51.2    V445.192z" data-original="#000000" class="active-path" data-old_color="#454545" fill="#454545"/>
	</g>
</g><g>
	<g>
		<path d="M248.444,376.925h-66.715c-4.655,0-7.758,3.103-7.758,7.758v67.491c0,4.655,3.103,7.758,7.758,7.758h66.715    c4.655,0,7.758-3.103,7.758-7.758v-67.491C256.202,380.804,252.323,376.925,248.444,376.925z M240.687,445.192h-51.2v-51.976h51.2    V445.192z" data-original="#000000" class="active-path" data-old_color="#454545" fill="#454545"/>
	</g>
</g><g>
	<g>
		<path d="M507.547,157.386L260.081,1.459c-2.327-1.552-5.43-1.552-8.533,0L3.305,158.162c-2.327,1.552-3.879,4.655-3.103,7.758    s3.879,5.43,7.758,5.43h25.6v309.527c0,4.655,3.103,7.758,7.758,7.758h256c4.655,0,7.758-3.103,7.758-7.758    c0-3.879-3.103-7.758-7.758-7.758H49.075V172.125h413.479V290.04c0,4.655,3.103,7.758,7.758,7.758    c4.655,0,7.758-3.103,7.758-7.758V172.125h26.376c4.655,0,7.758-3.103,7.758-7.758    C512.202,161.265,510.65,158.162,507.547,157.386z M35.111,156.61L256.202,16.974L477.293,156.61H35.111z" data-original="#000000" class="active-path" data-old_color="#454545" fill="#454545"/>
	</g>
</g><g>
	<g>
		<path d="M256.202,44.901c-27.151,0-49.648,22.497-49.648,49.648c0,27.151,22.497,49.648,49.648,49.648    c27.152,0,49.648-22.497,49.648-49.648C305.85,67.398,283.353,44.901,256.202,44.901z M256.202,129.458    c-18.618,0-34.133-15.515-34.133-34.133c0-18.618,15.515-34.133,34.133-34.133c18.618,0,34.133,15.515,34.133,34.133    C290.335,113.943,274.82,129.458,256.202,129.458z" data-original="#000000" class="active-path" data-old_color="#454545" fill="#454545"/>
	</g>
</g><g>
	<g>
		<path d="M505.22,378.477l-20.17-2.327c-2.327-8.533-5.43-16.291-10.085-23.273l12.412-15.515    c2.327-3.103,2.327-7.758-0.776-10.861l-16.291-17.067c-3.103-3.103-6.982-3.103-10.085-0.776l-16.291,12.412    c-6.982-4.655-15.515-7.758-23.273-9.309l-2.327-20.17c-0.776-3.879-3.879-6.982-7.758-6.982h-24.048    c-3.879,0-6.982,3.103-7.758,6.982l-2.327,20.17c-8.533,2.327-16.291,5.43-23.273,9.309l-16.291-12.412    c-3.103-2.327-7.758-2.327-10.085,0.776l-17.843,16.291c-3.103,3.103-3.103,6.982-0.776,10.085l12.412,16.291    c-4.655,6.982-7.758,15.515-10.085,23.273l-20.17,2.327c-3.879,0.776-6.982,3.879-6.982,7.758v24.048    c0,3.879,3.103,6.982,6.982,7.758l20.17,2.327c2.327,8.533,5.43,16.291,9.309,23.273l-12.412,16.291    c-2.327,3.103-2.327,7.758,0.776,10.085l17.067,17.067c3.103,3.103,6.982,3.103,10.085,0.776l16.291-12.412    c6.982,4.655,15.515,7.758,23.273,10.085l2.327,20.17c0.776,3.879,3.879,6.982,7.758,6.982h24.048    c3.879,0,6.982-3.103,7.758-6.982l2.327-20.17c8.533-2.327,16.291-5.43,23.273-10.085l15.515,12.412c0,0,0.776,0,0.776,0.776    c1.552,0.776,2.327,0.776,3.879,0.776c2.327,0,4.655-0.776,6.206-2.327l16.291-16.291c3.103-3.103,3.103-6.982,0.776-10.085    l-12.412-16.291c4.655-6.982,7.758-15.515,10.085-23.273l20.17-2.327c3.879-0.776,6.982-3.879,6.982-7.758v-24.048    C512.202,382.355,509.099,378.477,505.22,378.477z M496.687,403.301l-18.618,2.327c-3.103,0.776-6.206,3.103-6.982,6.206    c-1.552,10.085-5.43,19.394-11.636,27.927c-1.552,3.103-1.552,6.206,0,9.309l11.636,14.739l-6.982,6.982l-14.739-11.636    c-2.327-2.327-6.206-2.327-9.309,0c-8.533,5.43-17.842,9.309-27.927,11.636c-3.103,0.776-5.43,3.103-6.206,6.982l-2.327,18.618    h-10.085l-2.327-18.618c-0.776-3.103-3.103-6.206-6.206-6.982c-10.085-1.552-19.394-5.43-27.927-11.636    c-3.103-1.552-6.206-1.552-9.309,0l-14.739,11.636l-6.982-6.982l10.861-14.739c2.327-2.327,2.327-6.982,0-9.309    c-5.43-8.533-9.309-17.842-11.636-27.927c-0.776-3.103-3.103-5.43-6.982-6.206l-18.618-2.327v-10.085l18.618-2.327    c3.103-0.776,6.206-3.103,6.982-6.206c1.552-10.085,5.43-19.394,11.636-27.927c1.552-3.103,1.552-6.206,0-9.309l-11.636-14.739    l6.982-6.982l14.739,11.636c2.327,2.327,6.982,2.327,9.309,0c8.533-5.43,17.842-9.309,27.927-11.636    c3.103-0.776,5.43-3.103,6.206-6.982l2.327-18.618h10.861l2.327,18.618c0.776,3.103,3.103,6.206,6.206,6.982    c10.085,1.552,19.394,5.43,27.927,11.636c3.103,1.552,6.206,1.552,9.309,0l14.739-11.636l6.982,6.982l-11.636,14.739    c-2.327,2.327-2.327,6.206,0,9.309c5.43,8.533,9.309,17.842,11.636,27.927c0.776,3.103,3.103,5.43,6.982,6.206l18.618,2.327    V403.301z" data-original="#000000" class="active-path" data-old_color="#454545" fill="#454545"/>
	</g>
</g><g>
	<g>
		<path d="M398.165,342.016c-31.03,0-55.855,24.824-55.855,55.855c0,31.03,24.824,55.855,55.855,55.855    c31.03,0,55.855-24.824,55.855-55.855C454.02,366.84,429.196,342.016,398.165,342.016z M398.165,438.21    c-22.497,0-40.339-17.842-40.339-40.339c0-22.497,17.842-40.339,40.339-40.339c22.497,0,40.339,17.842,40.339,40.339    C438.505,420.368,420.662,438.21,398.165,438.21z" data-original="#000000" class="active-path" data-old_color="#454545" fill="#454545"/>
	</g>
</g></g> </svg>
